Coordinates
version=1
nRows=16
nColumns=36
inDegrees=yes

Units are S.I. units (second, meters, Newtons, ...)
If the header above contains a line with 'inDegrees', this indicates whether rotational values are in degrees (yes) or radians (no).

endheader
time	pelvis_tilt	pelvis_list	pelvis_rotation	pelvis_tx	pelvis_ty	pelvis_tz	hip_flexion_r	hip_adduction_r	hip_rotation_r	knee_angle_r	knee_angle_r_beta	ankle_angle_r	subtalar_angle_r	mtp_angle_r	hip_flexion_l	hip_adduction_l	hip_rotation_l	knee_angle_l	knee_angle_l_beta	ankle_angle_l	subtalar_angle_l	mtp_angle_l	lumbar_extension	lumbar_bending	lumbar_rotation	arm_flex_r	arm_add_r	arm_rot_r	elbow_flex_r	pro_sup_r	arm_flex_l	arm_add_l	arm_rot_l	elbow_flex_l	pro_sup_l
      0.00000000	     -8.67542512	     -1.77159948	     -3.93992973	      0.75735006	      1.24681450	      0.06694952	      6.63159696	      2.41813758	      6.88904950	      0.34529693	      0.00602657	     -0.96745797	    -17.36025038	     -5.78850324	      7.16723631	     -1.95072014	      7.18064174	      0.89554645	      0.01563023	      4.82055862	    -11.86429383	     -5.78850324	      7.28633453	      2.55554414	      0.98528434	     -2.12683318	     -9.64958459	      1.40232180	     14.67075676	     90.06600262	     -3.59576160	     -7.67463418	      0.12232898	     13.36235282	     89.25485489
      0.01666670	     -8.28874877	     -1.45340082	     -4.61409542	      0.75503228	      1.24361336	      0.06669018	      6.20682459	      2.08518766	      7.48620344	      0.26315549	      0.00459293	      1.40983358	    -15.81326232	     -6.19432739	      6.59107663	     -1.58303620	      6.57660262	      0.57209132	      0.00998488	      4.91419448	    -11.43013530	     -6.19432739	      6.96368279	      2.41044144	      1.55408596	     -1.52799474	     -9.86808542	      3.24414340	     12.65285406	     89.04089537	     -3.78521314	     -7.37938878	      1.51869161	     11.76203499	     87.36674040
      0.03333330	     -6.89254264	     -1.81346175	     -4.51520266	      0.75297147	      1.24859842	      0.06576658	      4.72832655	      2.44106346	      7.12985981	      0.28932365	      0.00504965	      1.70899271	    -15.28724920	     -6.64216406	      5.11762147	     -1.78972128	      6.36583594	      0.46350006	      0.00808960	      4.62898644	    -11.65196098	     -6.64216406	      4.75421970	      2.83795183	      1.07317490	     -1.08348328	    -10.20694301	      5.09563089	     12.29830759	     91.43509032	     -3.00897001	     -7.39634649	      3.57555731	     11.04626937	     88.13494008
      0.05000000	     -4.98862260	     -1.87421989	     -4.46744615	      0.75001195	      1.25039855	      0.06506719	      2.80472362	      2.33386158	      6.29391254	      0.31515139	      0.00550043	      2.61512402	    -14.18070429	     -6.75774042	      3.16426947	     -1.62620118	      5.70026347	      0.41036962	      0.00716230	      4.62673369	    -11.28418703	     -6.75774042	      1.60839670	      2.71605489	      0.83444860	     -0.29323976	    -10.14840449	      5.28506456	     12.50674210	     90.95107644	     -2.04985039	     -7.51559551	      3.51472768	     11.23029949	     87.36382641
      0.06666670	     -3.48559923	     -1.81880481	     -4.57244269	      0.74789065	      1.25200465	      0.06446909	      1.28056797	      2.17291391	      5.98577827	      0.35254995	      0.00615316	      3.54252588	    -13.55104070	     -6.96711477	      1.62220842	     -1.37926010	      5.53974107	      0.38784105	      0.00676910	      4.56840260	    -11.01082620	     -6.96711477	     -0.76914124	      2.56021018	      0.70144040	      0.63005059	    -10.33708487	      7.11459814	     12.54568540	     92.93138817	     -1.20753649	     -7.67747175	      4.79672796	     11.42270905	     88.32022061
      0.08333330	     -2.53932791	     -1.76908098	     -4.65424226	      0.74550007	      1.24740463	      0.06433625	      0.36961258	      2.01295408	      5.80487646	      0.39666127	      0.00692305	      4.04632812	    -13.50342870	     -6.98379942	      0.62160533	     -1.24823114	      5.51255029	      0.37280858	      0.00650674	      4.52237974	    -10.83074382	     -6.98379942	     -2.36134807	      2.39566801	      0.65238058	      1.09736716	    -10.27476262	      7.04465989	     12.80494184	     93.19072282	     -0.57900077	     -7.78382691	      4.68915686	     11.72739463	     88.52626865
      0.10000000	     -1.82118061	     -1.64197635	     -4.69539503	      0.74451173	      1.24849588	      0.06436339	     -0.31656856	      1.80282495	      5.63956542	      0.44666879	      0.00779584	      4.37546938	    -13.52841132	     -7.05523294	     -0.13615005	     -1.07959367	      5.58116808	      0.36975824	      0.00645350	      4.47116875	    -10.62612147	     -7.05523294	     -3.57296389	      2.10970041	      0.57643034	      1.42320637	    -10.18154552	      7.54366302	     13.13417219	     92.54558300	     -0.18563061	     -7.98640254	      4.86238295	     12.16961814	     87.95848908
      0.11666670	     -1.34676994	     -1.56910366	     -4.68289400	      0.74374770	      1.25225387	      0.06430174	     -0.77620473	      1.68129623	      5.52825863	      0.50251094	      0.00877047	      4.45389013	    -13.71111395	     -7.16930904	     -0.64464746	     -1.00670615	      5.61849655	      0.37158824	      0.00648544	      4.50010754	    -10.32650102	     -7.16930904	     -4.38053043	      1.88215999	      0.46487813	      1.76671833	    -10.14221398	      8.91282705	     13.07063651	     92.80681424	      0.19641302	     -8.23331208	      5.93680058	     12.28341160	     88.44275929
      0.13333330	     -1.00478682	     -1.46730786	     -4.61084951	      0.74335399	      1.25263604	      0.06433130	     -1.12740175	      1.53891453	      5.41319716	      0.55132495	      0.00962244	      4.63209287	    -13.81791249	     -7.20881252	     -0.98743053	     -0.90728615	      5.59152925	      0.36805192	      0.00642372	      4.54089833	     -9.84293089	     -7.20881252	     -5.03691958	      1.68090757	      0.38242978	      1.81176273	     -9.96735599	      8.78986301	     13.27376281	     90.78941997	      0.63629031	     -8.35266093	      5.77845656	     12.71065325	     86.68025790
      0.15000000	     -0.81294780	     -1.42801418	     -4.44358695	      0.74236423	      1.25022344	      0.06446549	     -1.31836876	      1.48842876	      5.11244143	      0.57937701	      0.01011204	      4.65839085	    -13.86827842	     -7.30500318	     -1.16300616	     -0.87265557	      5.83051180	      0.36683236	      0.00640243	      4.29628687	    -10.17215060	     -7.30500318	     -5.41847716	      1.52874558	      0.07419061	      2.10873078	     -9.98781460	     10.12810044	     13.47390493	     92.81765507	      1.01404770	     -8.69960366	      7.21957978	     13.00532310	     89.16987490
      0.16666670	     -0.58668554	     -1.36284218	     -4.43489357	      0.74196478	      1.25054233	      0.06456949	     -1.51123304	      1.40654237	      5.17267091	      0.60315346	      0.01052701	      4.52012286	    -14.31146970	     -7.31628004	     -1.38136984	     -0.80223026	      5.86369387	      0.36998650	      0.00645748	      4.24472311	    -10.13690639	     -7.31628004	     -5.90767362	      1.35973907	     -0.06056268	      2.32925461	     -9.83412176	     10.06775026	     13.92551902	     92.07599358	      1.39594962	     -8.83757000	      7.24429251	     13.48484686	     88.54690220
      0.18333330	     -0.34939294	     -1.36495092	     -4.46760452	      0.74145765	      1.25117620	      0.06467317	     -1.73908848	      1.39722299	      5.10954602	      0.62096075	      0.01083781	      4.51068392	    -14.37418722	     -7.33764066	     -1.66557412	     -0.79950763	      5.63253211	      0.37942482	      0.00662221	      4.40937372	     -9.62992240	     -7.33764066	     -6.37563954	      1.29358807	     -0.13995057	      2.58638290	     -9.72024539	     10.10395104	     14.46763617	     90.67405988	      1.77656124	     -8.90049970	      7.37334073	     14.10226146	     87.46551273
      0.20000000	     -0.35500788	     -1.36135491	     -4.33355795	      0.74161523	      1.25407182	      0.06430803	     -1.73565441	      1.40590758	      4.99918208	      0.63938297	      0.01115934	      4.33398368	    -14.64386361	     -7.38319812	     -1.63299769	     -0.81864445	      6.11973763	      0.39733324	      0.00693477	      3.92608194	    -10.43259582	     -7.38319812	     -6.48892675	      1.24995371	     -0.45147090	      2.86988803	     -9.66883111	     11.48652661	     14.67834009	     90.39087684	      2.40512886	     -9.03314084	      9.07116007	     14.16297274	     87.83097198
      0.21666670	     -0.25900103	     -1.35232117	     -4.31437674	      0.74082353	      1.25150724	      0.06454656	     -1.82922845	      1.39592803	      4.87651613	      0.63186305	      0.01102809	      4.36072382	    -14.56384477	     -7.41649135	     -1.74368391	     -0.80996290	      6.09203656	      0.40588216	      0.00708398	      3.94265850	    -10.35864105	     -7.41649135	     -6.73545821	      1.18603688	     -0.58696318	      3.19797690	     -9.64323602	     11.66032429	     15.28621395	     91.95117165	      2.99289413	     -9.20128677	      9.78895669	     14.52117688	     90.11683121
      0.23333330	      0.00269791	     -1.37444829	     -4.27969807	      0.74066666	      1.25204414	      0.06444538	     -2.14531977	      1.39312838	      4.57426232	      0.60012064	      0.01047408	      4.58277613	    -14.01798061	     -7.43233915	     -2.03814699	     -0.83326189	      5.97580211	      0.41644067	      0.00726826	      4.01335681	    -10.02732626	     -7.43233915	     -7.27652049	      1.15337987	     -0.76434671	      3.53880459	     -9.51785896	     11.39540196	     16.04106882	     89.12044072	      3.51083547	     -9.13006611	      9.42593294	     15.17206970	     87.50470454
      0.25000000	     -0.09767134	     -1.37991182	     -4.23183422	      0.74040233	      1.25218451	      0.06441528	     -2.05188555	      1.40007769	      4.64159084	      0.57647713	      0.01006142	      4.33981350	    -14.48724237	     -7.46528759	     -1.94974230	     -0.85404768	      6.10350826	      0.42678194	      0.00744875	      3.87665392	    -10.24856865	     -7.46528759	     -7.24118682	      1.14955207	     -0.84725651	      3.64518714	     -9.37956177	      9.38331430	     16.80232984	     95.25256992	      3.92312804	     -9.05993727	      7.77783925	     15.67419017	     94.97676320
